PathFileType	4	(X/Y/Z)	C:\Users\WrightLab\Desktop\Jo\P1.2Trial33.trc
DataRate	CameraRate	NumFrames	NumMarkers	Units	OrigDataRate	OrigDataStartFrame	OrigNumFrames
100.00	100.00	       31	19	mm	100.00	96	       766
Frame#	Time	Headset_Front			Headset_Back			Headset_Left			Headset_Right			Left_Shoulder			Right_Shoulder			Sternum			C7			Left Elbow			Right Elbow			Left Wrist			Right Wrist			Left ASIS			Right ASIS			S2			Left Knee			Right Knee			Left Ankle			Right Ankle			
		X1	Y1	Z1	X2	Y2	Z2	X3	Y3	Z3	X4	Y4	Z4	X5	Y5	Z5	X6	Y6	Z6	X7	Y7	Z7	X8	Y8	Z8	X9	Y9	Z9	X10	Y10	Z10	X11	Y11	Z11	X12	Y12	Z12	X13	Y13	Z13	X14	Y14	Z14	X15	Y15	Z15	X16	Y16	Z16	X17	Y17	Z17	X18	Y18	Z18	X19	Y19	Z19	

96	0.950																												-249.68477	993.19830	1494.97852				-299.91681	809.11957	1299.39380													-390.41919	447.82837	1646.57886							
97	0.960																												-249.66647	993.63898	1494.42822				-299.13757	809.41675	1299.17273													-390.06647	447.84424	1645.17810							
98	0.970																												-249.14877	994.15631	1493.83374				-298.19028	809.67035	1298.23694													-389.65012	447.68790	1644.41956							
99	0.980																												-248.94150	994.64471	1492.41016				-297.39600	810.22308	1297.24292													-388.80551	447.56723	1642.09546							
100	0.990																												-248.53064	995.10730	1491.73315				-296.54123	810.89117	1296.17200													-388.44955	447.63428	1641.41650							
101	1.000																												-248.34903	995.64581	1490.62732				-295.86319	811.29205	1295.46606													-388.36072	447.46689	1641.43323							
102	1.010																												-247.92696	996.34534	1489.60791				-294.84653	811.90076	1295.15430													-388.49982	446.60620	1640.91907							
103	1.020																												-247.80772	996.98767	1489.07654				-294.12100	812.36145	1294.66797													-389.12396	446.75705	1639.30713							
104	1.030																												-247.82928	998.43726	1488.37354				-293.38623	812.84558	1293.85083													-388.94830	446.41574	1638.38281							
105	1.040																												-246.89995	999.53607	1488.81958				-292.85526	813.36023	1292.99597													-388.74594	445.81378	1637.68079							
106	1.050																												-246.58635	999.79913	1488.54907				-292.47800	813.81116	1292.61389													-389.28320	446.29276	1634.92114							
107	1.060																												-246.35948	1000.31396	1487.95813				-292.14111	813.84912	1292.72559													-389.44586	446.03268	1634.92847							
108	1.070																												-245.98853	1000.85126	1487.56958				-292.03262	814.02106	1292.53821													-389.70987	445.64288	1634.77417							
109	1.080																												-245.42284	1001.30127	1486.65649				-291.94571	813.98438	1292.60876													-389.95322	445.18484	1634.62561							
110	1.090																												-245.18085	1001.74884	1486.56787				-291.95981	813.97467	1292.60803													-390.13611	445.01675	1634.62537							
111	1.100																												-244.77852	1002.03107	1486.03638				-292.04401	813.73761	1293.16809													-391.35135	445.81772	1631.15466							
112	1.110																												-244.13995	1002.35522	1485.60291				-291.86520	813.21667	1294.20325													-392.22354	446.00507	1629.84680							
113	1.120																												-243.49104	1002.87878	1485.66199				-292.20157	812.30975	1295.52502													-393.00842	444.62140	1629.73779							
114	1.130																												-243.32936	1003.13660	1485.34924				-291.13977	812.25165	1295.17188													-393.26727	444.45923	1629.73242							
115	1.140																												-243.09129	1003.30981	1485.27185				-291.73416	811.08258	1295.96814													-394.23721	444.15393	1627.66968							
116	1.150																												-242.92184	1003.43884	1485.27710				-292.35168	809.49261	1298.74744													-394.82352	443.73285	1626.82312							
117	1.160																												-242.83617	1003.47229	1485.26880				-292.92093	808.21381	1300.53479													-395.74857	443.41919	1625.43713							
118	1.170																												-242.82388	1003.48560	1485.27063				-293.45871	806.19135	1302.03003													-396.51498	443.59448	1624.63940							
119	1.180																												-242.88968	1003.49005	1485.28735				-294.30405	803.97040	1304.12622													-397.52322	442.67902	1625.72693							
120	1.190																												-242.80211	1003.69287	1485.89954				-294.88870	802.14081	1305.86963													-400.65399	442.54718	1623.96643							
121	1.200																												-243.06976	1003.43329	1486.21558				-295.51306	800.36469	1309.49451													-400.15100	442.34131	1622.70581							
122	1.210																												-243.71783	1003.02557	1487.53625				-296.53448	797.26440	1312.14795													-400.61932	441.94308	1622.48743							
123	1.220																												-244.34880	1002.73157	1488.07385				-297.51443	794.77246	1315.38745													-401.15387	441.70627	1622.46875							
124	1.230																												-245.21620	1002.33008	1488.65088				-298.85373	792.11481	1319.29395													-402.33932	440.48401	1622.10364							
125	1.240																												-246.08888	1001.93988	1489.48657				-299.71973	789.29468	1323.55298													-404.51093	441.42496	1618.91650							
126	1.250																												-247.35768	1001.64447	1490.41785				-301.38361	786.64899	1327.70215													-404.86914	441.17828	1618.22681							
